<svg width="48" height="48" viewBox="0 0 48 48" fill="none" xmlns="http://www.w3.org/2000/svg">
<g clip-path="url(#clip0_5814_26813)">
<path d="M0.0057373 8.99976C0.0057373 7.40846 0.637878 5.88233 1.7631 4.75712C2.88831 3.6319 4.41444 2.99976 6.00574 2.99976H42.0057C43.597 2.99976 45.1232 3.6319 46.2484 4.75712C47.3736 5.88233 48.0057 7.40846 48.0057 8.99976V38.9998C48.0057 40.5911 47.3736 42.1172 46.2484 43.2424C45.1232 44.3676 43.597 44.9998 42.0057 44.9998H6.00574C4.41444 44.9998 2.88831 44.3676 1.7631 43.2424C0.637878 42.1172 0.0057373 40.5911 0.0057373 38.9998V8.99976ZM3.00574 35.9998V38.9998C3.00574 39.7954 3.32181 40.5585 3.88442 41.1211C4.44703 41.6837 5.21009 41.9998 6.00574 41.9998H42.0057C42.8014 41.9998 43.5644 41.6837 44.1271 41.1211C44.6897 40.5585 45.0057 39.7954 45.0057 38.9998V28.4998L33.6747 22.6588C33.3934 22.5178 33.0749 22.4689 32.7642 22.519C32.4536 22.5691 32.1665 22.7156 31.9437 22.9378L20.8137 34.0678L12.8337 28.7518C12.5456 28.5599 12.2 28.4737 11.8556 28.5076C11.5111 28.5415 11.1889 28.6934 10.9437 28.9378L3.00574 35.9998ZM18.0057 16.4998C18.0057 15.3063 17.5316 14.1617 16.6877 13.3178C15.8438 12.4739 14.6992 11.9998 13.5057 11.9998C12.3123 11.9998 11.1677 12.4739 10.3238 13.3178C9.47984 14.1617 9.00574 15.3063 9.00574 16.4998C9.00574 17.6932 9.47984 18.8378 10.3238 19.6817C11.1677 20.5257 12.3123 20.9998 13.5057 20.9998C14.6992 20.9998 15.8438 20.5257 16.6877 19.6817C17.5316 18.8378 18.0057 17.6932 18.0057 16.4998Z" fill="#FAFAFA"/>
</g>
<defs>
<clipPath id="clip0_5814_26813">
<rect width="48" height="48" fill="white"/>
</clipPath>
</defs>
</svg>
