<svg width="41" height="40" viewBox="0 0 41 40" fill="none" xmlns="http://www.w3.org/2000/svg">
<rect x="0.5" width="40" height="40" rx="20" fill="#163466"/>
<path d="M30.5 18V21C30.5 25 28.5 27 24.5 27H24C23.69 27 23.39 27.15 23.2 27.4L21.7 29.4C21.04 30.28 19.96 30.28 19.3 29.4L17.8 27.4C17.64 27.18 17.27 27 17 27H16.5C12.5 27 10.5 26 10.5 21V16C10.5 12 12.5 10 16.5 10H22.5" fill="#163466"/>
<path d="M30.5 18V21C30.5 25 28.5 27 24.5 27H24C23.69 27 23.39 27.15 23.2 27.4L21.7 29.4C21.04 30.28 19.96 30.28 19.3 29.4L17.8 27.4C17.64 27.18 17.27 27 17 27H16.5C12.5 27 10.5 26 10.5 21V16C10.5 12 12.5 10 16.5 10H22.5" stroke="#FACA22" stroke-width="1.5" stroke-miterlimit="10" stroke-linecap="round" stroke-linejoin="round"/>
<path d="M28 15C29.3807 15 30.5 13.8807 30.5 12.5C30.5 11.1193 29.3807 10 28 10C26.6193 10 25.5 11.1193 25.5 12.5C25.5 13.8807 26.6193 15 28 15Z" fill="#163466" stroke="#FACA22" stroke-width="1.5" stroke-linecap="round" stroke-linejoin="round"/>
<path d="M24.4965 19H24.5054" stroke="#FACA22" stroke-width="2" stroke-linecap="round" stroke-linejoin="round"/>
<path d="M20.4955 19H20.5045" stroke="#FACA22" stroke-width="2" stroke-linecap="round" stroke-linejoin="round"/>
<path d="M16.4945 19H16.5035" stroke="#FACA22" stroke-width="2" stroke-linecap="round" stroke-linejoin="round"/>
</svg>
