<svg width="16" height="16" viewBox="0 0 16 16" fill="none" xmlns="http://www.w3.org/2000/svg">
<path d="M12.9843 6.03574L12.9849 6.03637C14.1009 7.1464 14.1 8.94721 12.9856 10.0497L12.9843 10.051L10.0583 12.977C10.0581 12.9772 10.0579 12.9774 10.0578 12.9775C8.94073 14.088 7.13835 14.087 6.02904 12.9777L3.00904 9.95766C2.44299 9.39161 2.14392 8.60986 2.17965 7.80879C2.17965 7.80862 2.17966 7.80845 2.17967 7.80828L2.33958 4.47676C2.33959 4.47664 2.3396 4.47652 2.3396 4.47639C2.39784 3.32107 3.32053 2.39861 4.48166 2.34636L4.48265 2.34632L7.81599 2.18632L7.81739 2.18625C8.61514 2.14457 9.39685 2.44829 9.9643 3.01574L12.9843 6.03574ZM4.08 6.33337C4.08 7.57746 5.08924 8.5867 6.33334 8.5867C7.57743 8.5867 8.58667 7.57746 8.58667 6.33337C8.58667 5.08927 7.57743 4.08003 6.33334 4.08003C5.08924 4.08003 4.08 5.08927 4.08 6.33337Z" fill="#FACA22" stroke="#FACA22" stroke-width="0.666667"/>
</svg>
