<svg width="48" height="38" viewBox="0 0 48 38" fill="none" xmlns="http://www.w3.org/2000/svg">
<path d="M24.5694 0.333252C25.8154 0.340252 28.9327 0.370585 32.246 0.503585L33.422 0.554918C36.7564 0.711251 40.0884 0.981918 41.7427 1.44159C43.9477 2.06225 45.679 3.86825 46.2647 6.15959C47.198 9.79959 47.3147 16.8976 47.3287 18.6173L47.331 18.9719V19.3779C47.3147 21.0976 47.198 28.1979 46.2647 31.8356C45.672 34.1339 43.9384 35.9423 41.7427 36.5536C40.0884 37.0133 36.7564 37.2839 33.422 37.4403L32.246 37.4939C28.9327 37.6246 25.8154 37.6572 24.5694 37.6619L24.021 37.6643H23.426C20.7894 37.6479 9.76202 37.5289 6.25269 36.5536C4.05002 35.9329 2.31635 34.1269 1.73069 31.8356C0.797354 28.1956 0.680687 21.0976 0.666687 19.3779V18.6173C0.680687 16.8976 0.797354 9.79725 1.73069 6.15959C2.32335 3.86125 4.05702 2.05292 6.25502 1.44392C9.76202 0.466252 20.7917 0.347252 23.4284 0.333252H24.5694ZM19.331 10.8333V27.1666L33.331 18.9999L19.331 10.8333Z" fill="#FAFAFA"/>
</svg>
